<?xml version="1.0" encoding="utf-8"?>
<!-- Generator: Adobe Illustrator 16.0.3, SVG Export Plug-In . SVG Version: 6.00 Build 0)  -->
<!DOCTYPE svg PUBLIC "-//W3C//DTD SVG 1.1//EN" "http://www.w3.org/Graphics/SVG/1.1/DTD/svg11.dtd">
<svg version="1.1" id="Layer_1" xmlns="http://www.w3.org/2000/svg" xmlns:xlink="http://www.w3.org/1999/xlink" x="0px" y="0px"
	 width="220px" height="110px" viewBox="0 0 220 110" enable-background="new 0 0 220 110" xml:space="preserve">
<rect fill="#F5F5F5" width="10" height="110"/>
<rect x="20" fill="#F5F5F5" width="10" height="110"/>
<rect x="30" fill="#F5F5F5" width="10" height="110"/>
<rect x="10" fill="#F5F5F5" width="10" height="110"/>
<rect x="40" fill="#FAFAFA" width="10" height="110"/>
<rect x="10" fill="#FAFAFA" width="10" height="110"/>
<rect x="50" fill="#FAFAFA" width="10" height="110"/>
<rect x="120" fill="#F5F5F5" width="10" height="110"/>
<rect x="140" fill="#F5F5F5" width="10" height="110"/>
<rect x="150" fill="#F5F5F5" width="10" height="110"/>
<rect x="160" fill="#F5F5F5" width="10" height="110"/>
<rect x="170" fill="#FAFAFA" width="10" height="110"/>
<rect x="180" fill="#F5F5F5" width="10" height="110"/>
<rect x="190" fill="#F5F5F5" width="10" height="110"/>
<rect x="200" fill="#FAFAFA" width="10" height="110"/>
<rect x="210" fill="#F5F5F5" width="10" height="110"/>
<rect x="90" fill="#F5F5F5" width="10" height="110"/>
<rect x="81" fill="#FAFAFA" width="10" height="110"/>
<rect x="70" fill="#F5F5F5" width="10" height="110"/>
<rect x="60" fill="#F5F5F5" width="10" height="110"/>
<rect x="110" fill="#F5F5F5" width="10" height="110"/>
<rect x="130" fill="#FAFAFA" width="10" height="110"/>
<rect x="67" fill="#F5F5F5" width="3" height="110"/>
<rect x="151" fill="#FAFAFA" width="3" height="110"/>
<rect x="194" fill="#FAFAFA" width="3" height="110"/>
<rect x="23" fill="#F5F5F5" width="3" height="110"/>
<rect x="10" fill="#F5F5F5" width="10" height="110"/>
<rect x="98" fill="#FAFAFA" width="10" height="110"/>
<rect x="185" fill="#FAFAFA" width="3" height="110"/>
<rect x="174" fill="#F5F5F5" width="3" height="110"/>
<rect x="164" fill="#FAFAFA" width="3" height="110"/>
<rect x="61" fill="#F5F5F5" width="10" height="110"/>
<rect x="74" fill="#F5F5F5" width="10" height="110"/>
<rect x="177" fill="#F0F0F0" width="3" height="110"/>
<rect x="184" fill="#F0F0F0" width="3" height="110"/>
<rect x="186" fill="#F0F0F0" width="3" height="110"/>
<rect x="154" fill="#FAFAFA" width="3" height="110"/>
<rect x="10" fill="#FAFAFA" width="10" height="110"/>
<rect x="35" fill="#FAFAFA" width="10" height="110"/>
<rect x="41" fill="#F5F5F5" width="10" height="110"/>
<rect x="69" fill="#FAFAFA" width="10" height="110"/>
<rect x="107" fill="#F5F5F5" width="10" height="110"/>
<rect x="113" fill="#FAFAFA" width="10" height="110"/>
<rect x="174" fill="#F0F0F0" width="1" height="110"/>
<rect x="31" fill="#FAFAFA" width="10" height="110"/>
<rect x="182" fill="#F0F0F0" width="1" height="110"/>
<rect x="148" fill="#FAFAFA" width="4" height="110"/>
<rect x="169" fill="#F0F0F0" width="3" height="110"/>
<rect x="172" fill="#F0F0F0" width="3" height="110"/>
<rect x="172" fill="#F5F5F5" width="1" height="110"/>
</svg>
